<?xml version="1.0" encoding="UTF-8" standalone="no"?>
<svg height="100%" stroke-miterlimit="10" style="fill-rule:nonzero;clip-rule:evenodd;stroke-linecap:round;stroke-linejoin:round;" version="1.1" viewBox="0 0 289.933 61.52" width="100%" xml:space="preserve" xmlns="http://www.w3.org/2000/svg" xmlnsVectornator="http://vectornator.io" xmlnsXlink="http://www.w3.org/1999/xlink">
<defs/>
<clipPath id="ArtboardFrame">
<rect height="61.52" width="289.933" x="0" y="0"/>
</clipPath>
<g clip-path="url(#ArtboardFrame)" id="g8" vectornatorLayerName="g8">
<g opacity="1">
<path d="M154.739 30.1331C153.875 35.5908 152.209 39.5148 149.748 41.9033C147.284 44.2908 143.928 45.4845 139.684 45.4845C138.697 45.4845 137.964 45.4471 137.484 45.3716C137.001 45.296 136.609 45.258 136.308 45.258L140.865 16.4851C141.255 16.4112 141.836 16.3345 142.607 16.2585C143.376 16.1836 144.217 16.144 145.127 16.144C148.917 16.144 151.659 17.2637 153.352 19.4997C155.045 21.7367 155.507 25.2815 154.739 30.1331ZM169.579 8.2408C167.187 5.6252 161.576 1.36014 151.364 1.36014L124.091 1.36014L114.747 60.0419C114.747 60.0419 143.959 60.1153 144.739 60.1153C152.061 60.1153 159.045 55.72 162.32 52.9908C165.596 50.2611 168.203 46.9632 170.143 43.0971C172.08 39.2299 173.429 34.9096 174.185 30.1331C174.905 25.5836 174.915 21.4517 174.216 17.7367C173.513 14.0227 171.968 10.8564 169.579 8.2408" fill="#6a6b6c" fill-rule="nonzero" opacity="1" stroke="none"/>
<path d="M198.287 25.0721C199.048 23.3659 200.061 21.87 201.328 20.5799C202.593 19.2908 204.157 18.2684 206.023 17.5091C207.885 16.7523 210.069 16.3721 212.572 16.3721C214.163 16.3721 216.019 16.6189 218.14 17.1112C220.26 17.6055 222.525 18.382 224.936 19.4419L231.688 4.09027C228.137 2.57413 224.819 1.5132 221.731 0.905468C218.641 0.300268 215.771-0.00399836 213.117-0.00399836C208.037-0.00399836 203.439 0.792402 199.321 2.384C195.201 3.97573 191.619 6.13667 188.571 8.8664C185.523 11.5955 183.04 14.8184 181.125 18.5325C179.209 22.2481 177.923 26.1908 177.263 30.3596C176.579 34.6815 176.484 38.7377 176.984 42.5279C177.483 46.32 178.721 49.6179 180.705 52.4221C182.687 55.2278 187.579 60.1153 197.207 60.1153L225.751 60.1153L230.791 28.4268L212.027 28.4268L209.379 45.1435L207.332 45.1435C203.085 45.1435 200.052 43.9497 198.233 41.5621C196.411 39.1731 195.905 35.4397 196.709 30.3596C196.997 28.5403 197.521 26.7773 198.287 25.0721" fill="#6a6b6c" fill-rule="nonzero" opacity="1" stroke="none"/>
<path d="M272.625 23.7637L254.431 23.7637C255.236 20.5799 256.632 18.2309 258.617 16.7132C260.6 15.1971 262.805 14.4388 265.232 14.4388C268.036 14.4388 270.037 15.3309 271.233 17.1112C272.431 18.8935 272.893 21.1107 272.625 23.7637ZM289.443 16.3153C288.8 12.9424 287.571 10.0607 285.751 7.6716C283.928 5.284 281.553 3.40747 278.624 2.04294C275.693 0.67787 272.219-0.00399671 268.203-0.00399671C263.349-0.00399671 258.975 0.811603 255.077 2.4408C251.18 4.07214 247.796 6.28934 244.925 9.09347C242.055 11.8992 239.712 15.1971 237.901 18.9872C236.087 22.7793 234.839 26.8351 234.155 31.1555C233.457 35.5544 233.401 39.6107 233.989 43.3236C234.575 47.0397 235.887 50.244 237.925 52.9341C239.961 55.6257 242.813 57.7299 246.479 59.2455C250.143 60.7617 254.705 61.52 260.163 61.52C271.983 61.52 281.456 57.7674 281.456 57.7674L279.829 42.1867C279.829 42.1867 274.189 44.0455 271.377 44.5752C268.563 45.1069 266.056 45.3716 263.859 45.3716C260.447 45.3716 257.8 44.7283 255.92 43.4383C254.037 42.1503 252.927 39.9517 252.585 36.8424L287.157 36.8424C287.476 35.7809 287.86 34.4361 288.309 32.8049C288.756 31.1757 289.143 29.3361 289.467 27.2897C290.091 23.3487 290.083 19.6893 289.443 16.3153" fill="#6a6b6c" fill-rule="nonzero" opacity="1" stroke="none"/>
<path d="M98.9948 1.36014L92.2063 44.0831C92.2063 44.0831 88.2427 44.0831 87.4079 44.0831C84.0245 44.0831 82.4401 43.6523 81.1921 41.9601C79.9213 40.2367 79.65 37.3345 80.2864 33.3164L85.3473 1.36014L66.1287 1.36014L60.7432 35.3637C59.8547 40.9736 59.9927 45.4845 61.1584 48.896C62.324 52.3085 64.1093 54.9242 66.5115 56.7434C68.9151 58.5632 72.336 60.0419 78.1803 60.0419C78.3661 60.0419 108.918 60.0419 108.918 60.0419L118.214 1.36014L98.9948 1.36014" fill="#6a6b6c" fill-rule="nonzero" opacity="1" stroke="none"/>
<path d="M17.2287 55.3877C16.9177 55.3877 16.624 55.3252 16.3432 55.2335C15.2027 54.8596 14.3729 53.7981 14.3729 52.532C14.3729 50.9549 15.6516 49.6763 17.2287 49.6763C18.8057 49.6763 20.0844 50.9549 20.0844 52.532C20.0844 53.7981 19.2547 54.8596 18.1136 55.2335C17.8333 55.3252 17.5396 55.3877 17.2287 55.3877ZM5.54115 43.2487C3.96407 43.2487 2.68541 41.97 2.68541 40.3929C2.68541 39.9393 2.80104 39.5159 2.98907 39.1351C3.45521 38.1919 4.41771 37.5372 5.54115 37.5372C7.11823 37.5372 8.39688 38.8153 8.39688 40.3929C8.39688 40.7981 8.30989 41.1825 8.15729 41.532C7.71719 42.5413 6.71303 43.2487 5.54115 43.2487ZM56.7339 12.6195C55.5683 9.20694 53.7828 6.59134 51.3807 4.7716C48.9771 2.95227 45.5568 1.4736 39.7125 1.4736C39.526 1.4736 8.97396 1.4736 8.97396 1.4736L3.44375 35.2684C1.42448 36.096 0 38.0757 0 40.3929C0 43.4528 2.48073 45.934 5.54115 45.934C8.60156 45.934 11.0823 43.4528 11.0823 40.3929C11.0823 38.8831 10.4745 37.5173 9.49479 36.5179L10.5323 30.5867C9.58907 29.5935 9.00208 28.2585 9.00208 26.7809C9.00208 23.7205 11.4828 21.2397 14.5432 21.2397C17.6031 21.2397 20.0844 23.7205 20.0844 26.7809C20.0844 28.9992 18.7719 30.8992 16.8891 31.784L14.4412 47.7684C12.801 48.7304 11.6875 50.4929 11.6875 52.532C11.6875 55.5924 14.1683 58.0731 17.2287 58.0731C20.2885 58.0731 22.7697 55.5924 22.7697 52.532C22.7697 50.8986 22.05 49.446 20.926 48.432L25.686 17.432C25.686 17.432 29.6495 17.432 30.4844 17.432C33.8677 17.432 35.4521 17.8627 36.7005 19.5555C37.9708 21.2783 38.2421 24.1809 37.6063 28.1992L32.5448 60.1549L51.7636 60.1549L57.1489 26.1512C58.0375 20.5419 57.8995 16.0304 56.7339 12.6195" fill="#7cd4e8" fill-rule="nonzero" opacity="1" stroke="none"/>
<path d="M14.5432 29.6367C15.5145 29.6367 16.3703 29.1492 16.886 28.408C17.2073 27.946 17.3989 27.3867 17.3989 26.7809C17.3989 25.2039 16.1203 23.9252 14.5432 23.9252C12.9656 23.9252 11.6875 25.2039 11.6875 26.7809C11.6875 27.0528 11.7375 27.3112 11.8089 27.5607C12.1495 28.756 13.238 29.6367 14.5432 29.6367" fill="#7cd4e8" fill-rule="nonzero" opacity="1" stroke="none"/>
</g>
</g>
</svg>
